<?xml version="1.0" encoding="UTF-8" standalone="no"?>
<!DOCTYPE svg PUBLIC "-//W3C//DTD SVG 1.1//EN"
 "http://www.w3.org/Graphics/SVG/1.1/DTD/svg11.dtd">
<!-- Generated by graphviz version 2.43.0 (0)
 -->
<!-- Title: %3 Pages: 1 -->
<svg width="1068pt" height="467pt"
 viewBox="0.00 0.00 1067.90 466.95" xmlns="http://www.w3.org/2000/svg" xmlns:xlink="http://www.w3.org/1999/xlink">
<g id="graph0" class="graph" transform="scale(1 1) rotate(0) translate(4 462.95)">
<title>%3</title>
<polygon fill="white" stroke="transparent" points="-4,4 -4,-462.95 1063.9,-462.95 1063.9,4 -4,4"/>
<!-- seededCsSpec1 -->
<g id="node1" class="node">
<title>seededCsSpec1</title>
<polygon fill="green" stroke="black" points="302,-458.95 0,-458.95 0,-389.95 302,-389.95 302,-458.95"/>
<text text-anchor="middle" x="151" y="-443.75" font-family="Times,serif" font-size="14.00">Graphviz&#45;Specifications&#45;1</text>
<text text-anchor="middle" x="151" y="-412.75" font-family="Times,serif" font-size="14.00">https://github.com/bisos&#45;pip/graphviz&#45;cs</text>
<text text-anchor="middle" x="151" y="-397.75" font-family="Times,serif" font-size="14.00">py3/examples</text>
</g>
<!-- graphvizSeed -->
<g id="node4" class="node">
<title>graphvizSeed</title>
<ellipse fill="#9bcd9b" stroke="black" cx="471" cy="-305.16" rx="213.59" ry="48.58"/>
<text text-anchor="middle" x="471" y="-324.46" font-family="Times,serif" font-size="14.00">Graphviz</text>
<text text-anchor="middle" x="471" y="-309.46" font-family="Times,serif" font-size="14.00"> Seeded&#45;PyCS</text>
<text text-anchor="middle" x="471" y="-278.46" font-family="Times,serif" font-size="14.00">https://github.com/bisos&#45;pip/graphviz&#45;cs</text>
</g>
<!-- seededCsSpec1&#45;&gt;graphvizSeed -->
<g id="edge1" class="edge">
<title>seededCsSpec1&#45;&gt;graphvizSeed</title>
<path fill="none" stroke="black" d="M242.7,-389.84C276.27,-377.53 314.77,-363.42 350.48,-350.33"/>
<polygon fill="black" stroke="black" points="351.8,-353.58 359.98,-346.85 349.39,-347.01 351.8,-353.58"/>
</g>
<!-- seededCsSpecDots -->
<g id="node2" class="node">
<title>seededCsSpecDots</title>
<polygon fill="green" stroke="black" points="622,-458.95 320,-458.95 320,-389.95 622,-389.95 622,-458.95"/>
<text text-anchor="middle" x="471" y="-443.75" font-family="Times,serif" font-size="14.00">Graphviz&#45;Specifications&#45;...</text>
<text text-anchor="middle" x="471" y="-412.75" font-family="Times,serif" font-size="14.00">https://github.com/bisos&#45;pip/graphviz&#45;cs</text>
<text text-anchor="middle" x="471" y="-397.75" font-family="Times,serif" font-size="14.00">py3/examples</text>
</g>
<!-- seededCsSpecDots&#45;&gt;graphvizSeed -->
<g id="edge2" class="edge">
<title>seededCsSpecDots&#45;&gt;graphvizSeed</title>
<path fill="none" stroke="black" d="M471,-389.84C471,-381.86 471,-373.12 471,-364.39"/>
<polygon fill="black" stroke="black" points="474.5,-364.19 471,-354.19 467.5,-364.19 474.5,-364.19"/>
</g>
<!-- seededCsSpecN -->
<g id="node3" class="node">
<title>seededCsSpecN</title>
<polygon fill="green" stroke="black" points="942,-458.95 640,-458.95 640,-389.95 942,-389.95 942,-458.95"/>
<text text-anchor="middle" x="791" y="-443.75" font-family="Times,serif" font-size="14.00">Graphviz&#45;Specifications&#45;N</text>
<text text-anchor="middle" x="791" y="-412.75" font-family="Times,serif" font-size="14.00">https://github.com/bisos&#45;pip/graphviz&#45;cs</text>
<text text-anchor="middle" x="791" y="-397.75" font-family="Times,serif" font-size="14.00">py3/examples</text>
</g>
<!-- seededCsSpecN&#45;&gt;graphvizSeed -->
<g id="edge3" class="edge">
<title>seededCsSpecN&#45;&gt;graphvizSeed</title>
<path fill="none" stroke="black" d="M699.3,-389.84C665.73,-377.53 627.23,-363.42 591.52,-350.33"/>
<polygon fill="black" stroke="black" points="592.61,-347.01 582.02,-346.85 590.2,-353.58 592.61,-347.01"/>
</g>
<!-- pycs -->
<g id="node5" class="node">
<title>pycs</title>
<ellipse fill="#9bcd9b" stroke="black" cx="881" cy="-305.16" rx="178.8" ry="48.17"/>
<text text-anchor="middle" x="881" y="-323.96" font-family="Times,serif" font-size="14.00">Python</text>
<text text-anchor="middle" x="881" y="-308.96" font-family="Times,serif" font-size="14.00">Command Services</text>
<text text-anchor="middle" x="881" y="-293.96" font-family="Times,serif" font-size="14.00"> (PyCS)</text>
<text text-anchor="middle" x="881" y="-278.96" font-family="Times,serif" font-size="14.00">https://github.com/bisos&#45;pip/pycs</text>
</g>
<!-- graphvizSeed&#45;&gt;pycs -->
<g id="edge4" class="edge">
<title>graphvizSeed&#45;&gt;pycs</title>
<path fill="none" stroke="black" d="M684.81,-305.16C687.14,-305.16 689.48,-305.16 691.81,-305.16"/>
<polygon fill="black" stroke="black" points="692.05,-308.66 702.05,-305.16 692.05,-301.66 692.05,-308.66"/>
</g>
<!-- pyGraphviz -->
<g id="node6" class="node">
<title>pyGraphviz</title>
<ellipse fill="deepskyblue" stroke="black" cx="471" cy="-182.18" rx="178.38" ry="38.37"/>
<text text-anchor="middle" x="471" y="-193.98" font-family="Times,serif" font-size="14.00">Python Graphviz</text>
<text text-anchor="middle" x="471" y="-162.98" font-family="Times,serif" font-size="14.00">https://github.com/xflr6/graphviz</text>
</g>
<!-- graphvizSeed&#45;&gt;pyGraphviz -->
<g id="edge5" class="edge">
<title>graphvizSeed&#45;&gt;pyGraphviz</title>
<path fill="none" stroke="black" d="M471,-256.35C471,-247.89 471,-239.1 471,-230.65"/>
<polygon fill="black" stroke="black" points="474.5,-230.58 471,-220.58 467.5,-230.58 474.5,-230.58"/>
</g>
<!-- graphviz -->
<g id="node7" class="node">
<title>graphviz</title>
<ellipse fill="deepskyblue" stroke="black" cx="471" cy="-90" rx="71.49" ry="18"/>
<text text-anchor="middle" x="471" y="-86.3" font-family="Times,serif" font-size="14.00">Graphviz.org</text>
</g>
<!-- pyGraphviz&#45;&gt;graphviz -->
<g id="edge6" class="edge">
<title>pyGraphviz&#45;&gt;graphviz</title>
<path fill="none" stroke="black" d="M471,-143.98C471,-135.35 471,-126.31 471,-118.2"/>
<polygon fill="black" stroke="black" points="474.5,-118.18 471,-108.18 467.5,-118.18 474.5,-118.18"/>
</g>
<!-- pdf -->
<g id="node8" class="node">
<title>pdf</title>
<path fill="darksalmon" stroke="black" d="M354,-32.73C354,-34.53 341.9,-36 327,-36 312.1,-36 300,-34.53 300,-32.73 300,-32.73 300,-3.27 300,-3.27 300,-1.47 312.1,0 327,0 341.9,0 354,-1.47 354,-3.27 354,-3.27 354,-32.73 354,-32.73"/>
<path fill="none" stroke="black" d="M354,-32.73C354,-30.92 341.9,-29.45 327,-29.45 312.1,-29.45 300,-30.92 300,-32.73"/>
<text text-anchor="middle" x="327" y="-14.3" font-family="Times,serif" font-size="14.00">pdf</text>
</g>
<!-- graphviz&#45;&gt;pdf -->
<g id="edge7" class="edge">
<title>graphviz&#45;&gt;pdf</title>
<path fill="none" stroke="black" d="M439.4,-73.64C416.99,-62.74 386.85,-48.1 363.43,-36.71"/>
<polygon fill="black" stroke="black" points="364.69,-33.43 354.17,-32.21 361.63,-39.73 364.69,-33.43"/>
</g>
<!-- svg -->
<g id="node9" class="node">
<title>svg</title>
<path fill="darksalmon" stroke="black" d="M426,-32.73C426,-34.53 413.9,-36 399,-36 384.1,-36 372,-34.53 372,-32.73 372,-32.73 372,-3.27 372,-3.27 372,-1.47 384.1,0 399,0 413.9,0 426,-1.47 426,-3.27 426,-3.27 426,-32.73 426,-32.73"/>
<path fill="none" stroke="black" d="M426,-32.73C426,-30.92 413.9,-29.45 399,-29.45 384.1,-29.45 372,-30.92 372,-32.73"/>
<text text-anchor="middle" x="399" y="-14.3" font-family="Times,serif" font-size="14.00">svg</text>
</g>
<!-- graphviz&#45;&gt;svg -->
<g id="edge8" class="edge">
<title>graphviz&#45;&gt;svg</title>
<path fill="none" stroke="black" d="M453.94,-72.41C444.92,-63.65 433.7,-52.73 423.74,-43.06"/>
<polygon fill="black" stroke="black" points="426.05,-40.42 416.44,-35.96 421.17,-45.44 426.05,-40.42"/>
</g>
<!-- etcOutput -->
<g id="node10" class="node">
<title>etcOutput</title>
<path fill="darksalmon" stroke="black" d="M498,-32.73C498,-34.53 485.9,-36 471,-36 456.1,-36 444,-34.53 444,-32.73 444,-32.73 444,-3.27 444,-3.27 444,-1.47 456.1,0 471,0 485.9,0 498,-1.47 498,-3.27 498,-3.27 498,-32.73 498,-32.73"/>
<path fill="none" stroke="black" d="M498,-32.73C498,-30.92 485.9,-29.45 471,-29.45 456.1,-29.45 444,-30.92 444,-32.73"/>
<text text-anchor="middle" x="471" y="-14.3" font-family="Times,serif" font-size="14.00">...</text>
</g>
<!-- graphviz&#45;&gt;etcOutput -->
<g id="edge11" class="edge">
<title>graphviz&#45;&gt;etcOutput</title>
<path fill="none" stroke="black" d="M471,-71.7C471,-63.98 471,-54.71 471,-46.11"/>
<polygon fill="black" stroke="black" points="474.5,-46.1 471,-36.1 467.5,-46.1 474.5,-46.1"/>
</g>
<!-- png -->
<g id="node11" class="node">
<title>png</title>
<path fill="darksalmon" stroke="black" d="M570,-32.73C570,-34.53 557.9,-36 543,-36 528.1,-36 516,-34.53 516,-32.73 516,-32.73 516,-3.27 516,-3.27 516,-1.47 528.1,0 543,0 557.9,0 570,-1.47 570,-3.27 570,-3.27 570,-32.73 570,-32.73"/>
<path fill="none" stroke="black" d="M570,-32.73C570,-30.92 557.9,-29.45 543,-29.45 528.1,-29.45 516,-30.92 516,-32.73"/>
<text text-anchor="middle" x="543" y="-14.3" font-family="Times,serif" font-size="14.00">png</text>
</g>
<!-- graphviz&#45;&gt;png -->
<g id="edge9" class="edge">
<title>graphviz&#45;&gt;png</title>
<path fill="none" stroke="black" d="M488.06,-72.41C497.08,-63.65 508.3,-52.73 518.26,-43.06"/>
<polygon fill="black" stroke="black" points="520.83,-45.44 525.56,-35.96 515.95,-40.42 520.83,-45.44"/>
</g>
<!-- jpeg -->
<g id="node12" class="node">
<title>jpeg</title>
<path fill="darksalmon" stroke="black" d="M642,-32.73C642,-34.53 629.9,-36 615,-36 600.1,-36 588,-34.53 588,-32.73 588,-32.73 588,-3.27 588,-3.27 588,-1.47 600.1,0 615,0 629.9,0 642,-1.47 642,-3.27 642,-3.27 642,-32.73 642,-32.73"/>
<path fill="none" stroke="black" d="M642,-32.73C642,-30.92 629.9,-29.45 615,-29.45 600.1,-29.45 588,-30.92 588,-32.73"/>
<text text-anchor="middle" x="615" y="-14.3" font-family="Times,serif" font-size="14.00">jpeg</text>
</g>
<!-- graphviz&#45;&gt;jpeg -->
<g id="edge10" class="edge">
<title>graphviz&#45;&gt;jpeg</title>
<path fill="none" stroke="black" d="M502.6,-73.64C525.01,-62.74 555.15,-48.1 578.57,-36.71"/>
<polygon fill="black" stroke="black" points="580.37,-39.73 587.83,-32.21 577.31,-33.43 580.37,-39.73"/>
</g>
</g>
</svg>
