<?xml version="1.0" encoding="UTF-8" standalone="no"?>
<!DOCTYPE svg PUBLIC "-//W3C//DTD SVG 1.1//EN"
 "http://www.w3.org/Graphics/SVG/1.1/DTD/svg11.dtd">
<!-- Generated by graphviz version 2.43.0 (0)
 -->
<!-- Title: %3 Pages: 1 -->
<svg width="1068pt" height="467pt"
 viewBox="0.00 0.00 1067.90 466.95" xmlns="http://www.w3.org/2000/svg" xmlns:xlink="http://www.w3.org/1999/xlink">
<g id="graph0" class="graph" transform="scale(1 1) rotate(0) translate(4 462.95)">
<title>%3</title>
<polygon fill="white" stroke="transparent" points="-4,4 -4,-462.95 1063.9,-462.95 1063.9,4 -4,4"/>
<!-- seededCsSpec1 -->
<g id="node1" class="node">
<title>seededCsSpec1</title>
<polygon fill="green" stroke="black" points="302,-458.95 0,-458.95 0,-389.95 302,-389.95 302,-458.95"/>
<text text-anchor="middle" x="151" y="-443.75" font-family="Times,serif" font-size="14.00">Graphviz&#45;Specifications&#45;1</text>
<text text-anchor="middle" x="151" y="-412.75" font-family="Times,serif" font-size="14.00">https://github.com/bisos&#45;pip/graphviz&#45;cs</text>
<text text-anchor="middle" x="151" y="-397.75" font-family="Times,serif" font-size="14.00">py3/examples</text>
</g>
<!-- graphvizSeed -->
<g id="node4" class="node">
<title>graphvizSeed</title>
<ellipse fill="#9bcd9b" stroke="black" cx="471" cy="-305.16" rx="213.59" ry="48.58"/>
<text text-anchor="middle" x="471" y="-324.46" font-family="Times,serif" font-size="14.00">Seeded&#45;PyCS</text>
<text text-anchor="middle" x="471" y="-309.46" font-family="Times,serif" font-size="14.00">Graphviz</text>
<text text-anchor="middle" x="471" y="-278.46" font-family="Times,serif" font-size="14.00">https://github.com/bisos&#45;pip/graphviz&#45;cs</text>
</g>
<!-- seededCsSpec1&#45;&gt;graphvizSeed -->
<g id="edge1" class="edge">
<title>seededCsSpec1&#45;&gt;graphvizSeed</title>
<path fill="none" stroke="black" d="M242.7,-389.84C276.27,-377.53 314.77,-363.42 350.48,-350.33"/>
<polygon fill="black" stroke="black" points="351.8,-353.58 359.98,-346.85 349.39,-347.01 351.8,-353.58"/>
</g>
<!-- seededCsSpecDots -->
<g id="node2" class="node">
<title>seededCsSpecDots</title>
<polygon fill="green" stroke="black" points="622,-458.95 320,-458.95 320,-389.95 622,-389.95 622,-458.95"/>
<text text-anchor="middle" x="471" y="-443.75" font-family="Times,serif" font-size="14.00">Graphviz&#45;Specifications&#45;...</text>
<text text-anchor="middle" x="471" y="-412.75" font-family="Times,serif" font-size="14.00">https://github.com/bisos&#45;pip/graphviz&#45;cs</text>
<text text-anchor="middle" x="471" y="-397.75" font-family="Times,serif" font-size="14.00">py3/examples</text>
</g>
<!-- seededCsSpecDots&#45;&gt;graphvizSeed -->
<g id="edge2" class="edge">
<title>seededCsSpecDots&#45;&gt;graphvizSeed</title>
<path fill="none" stroke="black" d="M471,-389.84C471,-381.86 471,-373.12 471,-364.39"/>
<polygon fill="black" stroke="black" points="474.5,-364.19 471,-354.19 467.5,-364.19 474.5,-364.19"/>
</g>
<!-- seededCsSpecN -->
<g id="node3" class="node">
<title>seededCsSpecN</title>
<polygon fill="green" stroke="black" points="942,-458.95 640,-458.95 640,-389.95 942,-389.95 942,-458.95"/>
<text text-anchor="middle" x="791" y="-443.75" font-family="Times,serif" font-size="14.00">Graphviz&#45;Specifications&#45;N</text>
<text text-anchor="middle" x="791" y="-412.75" font-family="Times,serif" font-size="14.00">https://github.com/bisos&#45;pip/graphviz&#45;cs</text>
<text text-anchor="middle" x="791" y="-397.75" font-family="Times,serif" font-size="14.00">py3/examples</text>
</g>
<!-- seededCsSpecN&#45;&gt;graphvizSeed -->
<g id="edge3" class="edge">
<title>seededCsSpecN&#45;&gt;graphvizSeed</title>
<path fill="none" stroke="black" d="M699.3,-389.84C665.73,-377.53 627.23,-363.42 591.52,-350.33"/>
<polygon fill="black" stroke="black" points="592.61,-347.01 582.02,-346.85 590.2,-353.58 592.61,-347.01"/>
</g>
<!-- pycs -->
<g id="node5" class="node">
<title>pycs</title>
<ellipse fill="#9bcd9b" stroke="black" cx="881" cy="-305.16" rx="178.8" ry="48.17"/>
<text text-anchor="middle" x="881" y="-323.96" font-family="Times,serif" font-size="14.00">Python</text>
<text text-anchor="middle" x="881" y="-308.96" font-family="Times,serif" font-size="14.00">Command Services</text>
<text text-anchor="middle" x="881" y="-293.96" font-family="Times,serif" font-size="14.00"> (PyCS)</text>
<text text-anchor="middle" x="881" y="-278.96" font-family="Times,serif" font-size="14.00">https://github.com/bisos&#45;pip/pycs</text>
</g>
<!-- graphvizSeed&#45;&gt;pycs -->
<g id="edge4" class="edge">
<title>graphvizSeed&#45;&gt;pycs</title>
<path fill="none" stroke="black" d="M684.81,-305.16C687.14,-305.16 689.48,-305.16 691.81,-305.16"/>
<polygon fill="black" stroke="black" points="692.05,-308.66 702.05,-305.16 692.05,-301.66 692.05,-308.66"/>
</g>
<!-- pyGraphviz -->
<g id="node6" class="node">
<title>pyGraphviz</title>
<ellipse fill="deepskyblue" stroke="black" cx="471" cy="-182.18" rx="178.38" ry="38.37"/>
<text text-anchor="middle" x="471" y="-193.98" font-family="Times,serif" font-size="14.00">Python Graphviz</text>
<text text-anchor="middle" x="471" y="-162.98" font-family="Times,serif" font-size="14.00">https://github.com/xflr6/graphviz</text>
</g>
<!-- graphvizSeed&#45;&gt;pyGraphviz -->
<g id="edge5" class="edge">
<title>graphvizSeed&#45;&gt;pyGraphviz</title>
<path fill="none" stroke="black" d="M471,-256.35C471,-247.89 471,-239.1 471,-230.65"/>
<polygon fill="black" stroke="black" points="474.5,-230.58 471,-220.58 467.5,-230.58 474.5,-230.58"/>
</g>
<!-- graphviz -->
<g id="node7" class="node">
<title>graphviz</title>
<ellipse fill="#00eeee" stroke="black" cx="471" cy="-90" rx="71.49" ry="18"/>
<text text-anchor="middle" x="471" y="-86.3" font-family="Times,serif" font-size="14.00">Graphviz.org</text>
</g>
<!-- pyGraphviz&#45;&gt;graphviz -->
<g id="edge6" class="edge">
<title>pyGraphviz&#45;&gt;graphviz</title>
<path fill="none" stroke="black" d="M471,-143.98C471,-135.35 471,-126.31 471,-118.2"/>
<polygon fill="black" stroke="black" points="474.5,-118.18 471,-108.18 467.5,-118.18 474.5,-118.18"/>
</g>
<!-- pdf -->
<g id="node8" class="node">
<title>pdf</title>
<path fill="darksalmon" stroke="black" d="M318,-32.73C318,-34.53 305.9,-36 291,-36 276.1,-36 264,-34.53 264,-32.73 264,-32.73 264,-3.27 264,-3.27 264,-1.47 276.1,0 291,0 305.9,0 318,-1.47 318,-3.27 318,-3.27 318,-32.73 318,-32.73"/>
<path fill="none" stroke="black" d="M318,-32.73C318,-30.92 305.9,-29.45 291,-29.45 276.1,-29.45 264,-30.92 264,-32.73"/>
<text text-anchor="middle" x="291" y="-14.3" font-family="Times,serif" font-size="14.00">pdf</text>
</g>
<!-- graphviz&#45;&gt;pdf -->
<g id="edge7" class="edge">
<title>graphviz&#45;&gt;pdf</title>
<path fill="none" stroke="black" d="M430.28,-75.1C403.34,-65.65 367.1,-52.49 327.36,-35.99"/>
<polygon fill="black" stroke="black" points="328.59,-32.71 318.01,-32.07 325.88,-39.16 328.59,-32.71"/>
</g>
<!-- svg -->
<g id="node9" class="node">
<title>svg</title>
<path fill="darksalmon" stroke="black" d="M390,-32.73C390,-34.53 377.9,-36 363,-36 348.1,-36 336,-34.53 336,-32.73 336,-32.73 336,-3.27 336,-3.27 336,-1.47 348.1,0 363,0 377.9,0 390,-1.47 390,-3.27 390,-3.27 390,-32.73 390,-32.73"/>
<path fill="none" stroke="black" d="M390,-32.73C390,-30.92 377.9,-29.45 363,-29.45 348.1,-29.45 336,-30.92 336,-32.73"/>
<text text-anchor="middle" x="363" y="-14.3" font-family="Times,serif" font-size="14.00">svg</text>
</g>
<!-- graphviz&#45;&gt;svg -->
<g id="edge8" class="edge">
<title>graphviz&#45;&gt;svg</title>
<path fill="none" stroke="black" d="M446.22,-72.94C431.4,-63.34 412.39,-51.01 396.27,-40.56"/>
<polygon fill="black" stroke="black" points="397.96,-37.49 387.66,-34.98 394.15,-43.36 397.96,-37.49"/>
</g>
<!-- etcOutput -->
<g id="node10" class="node">
<title>etcOutput</title>
<path fill="darksalmon" stroke="black" d="M462,-32.73C462,-34.53 449.9,-36 435,-36 420.1,-36 408,-34.53 408,-32.73 408,-32.73 408,-3.27 408,-3.27 408,-1.47 420.1,0 435,0 449.9,0 462,-1.47 462,-3.27 462,-3.27 462,-32.73 462,-32.73"/>
<path fill="none" stroke="black" d="M462,-32.73C462,-30.92 449.9,-29.45 435,-29.45 420.1,-29.45 408,-30.92 408,-32.73"/>
<text text-anchor="middle" x="435" y="-14.3" font-family="Times,serif" font-size="14.00">...</text>
</g>
<!-- graphviz&#45;&gt;etcOutput -->
<g id="edge11" class="edge">
<title>graphviz&#45;&gt;etcOutput</title>
<path fill="none" stroke="black" d="M462.29,-72.05C458.15,-64.01 453.11,-54.2 448.49,-45.23"/>
<polygon fill="black" stroke="black" points="451.57,-43.57 443.88,-36.28 445.35,-46.77 451.57,-43.57"/>
</g>
<!-- png -->
<g id="node11" class="node">
<title>png</title>
<path fill="darksalmon" stroke="black" d="M534,-32.73C534,-34.53 521.9,-36 507,-36 492.1,-36 480,-34.53 480,-32.73 480,-32.73 480,-3.27 480,-3.27 480,-1.47 492.1,0 507,0 521.9,0 534,-1.47 534,-3.27 534,-3.27 534,-32.73 534,-32.73"/>
<path fill="none" stroke="black" d="M534,-32.73C534,-30.92 521.9,-29.45 507,-29.45 492.1,-29.45 480,-30.92 480,-32.73"/>
<text text-anchor="middle" x="507" y="-14.3" font-family="Times,serif" font-size="14.00">png</text>
</g>
<!-- graphviz&#45;&gt;png -->
<g id="edge9" class="edge">
<title>graphviz&#45;&gt;png</title>
<path fill="none" stroke="black" d="M479.71,-72.05C483.85,-64.01 488.89,-54.2 493.51,-45.23"/>
<polygon fill="black" stroke="black" points="496.65,-46.77 498.12,-36.28 490.43,-43.57 496.65,-46.77"/>
</g>
<!-- jpeg -->
<g id="node12" class="node">
<title>jpeg</title>
<path fill="darksalmon" stroke="black" d="M606,-32.73C606,-34.53 593.9,-36 579,-36 564.1,-36 552,-34.53 552,-32.73 552,-32.73 552,-3.27 552,-3.27 552,-1.47 564.1,0 579,0 593.9,0 606,-1.47 606,-3.27 606,-3.27 606,-32.73 606,-32.73"/>
<path fill="none" stroke="black" d="M606,-32.73C606,-30.92 593.9,-29.45 579,-29.45 564.1,-29.45 552,-30.92 552,-32.73"/>
<text text-anchor="middle" x="579" y="-14.3" font-family="Times,serif" font-size="14.00">jpeg</text>
</g>
<!-- graphviz&#45;&gt;jpeg -->
<g id="edge10" class="edge">
<title>graphviz&#45;&gt;jpeg</title>
<path fill="none" stroke="black" d="M495.78,-72.94C510.6,-63.34 529.61,-51.01 545.73,-40.56"/>
<polygon fill="black" stroke="black" points="547.85,-43.36 554.34,-34.98 544.04,-37.49 547.85,-43.36"/>
</g>
<!-- gv -->
<g id="node13" class="node">
<title>gv</title>
<path fill="darksalmon" stroke="black" d="M678,-32.73C678,-34.53 665.9,-36 651,-36 636.1,-36 624,-34.53 624,-32.73 624,-32.73 624,-3.27 624,-3.27 624,-1.47 636.1,0 651,0 665.9,0 678,-1.47 678,-3.27 678,-3.27 678,-32.73 678,-32.73"/>
<path fill="none" stroke="black" d="M678,-32.73C678,-30.92 665.9,-29.45 651,-29.45 636.1,-29.45 624,-30.92 624,-32.73"/>
<text text-anchor="middle" x="651" y="-14.3" font-family="Times,serif" font-size="14.00">gv</text>
</g>
<!-- graphviz&#45;&gt;gv -->
<g id="edge12" class="edge">
<title>graphviz&#45;&gt;gv</title>
<path fill="none" stroke="black" d="M511.72,-75.1C538.66,-65.65 574.9,-52.49 614.64,-35.99"/>
<polygon fill="black" stroke="black" points="616.12,-39.16 623.99,-32.07 613.41,-32.71 616.12,-39.16"/>
</g>
</g>
</svg>
