<?xml version="1.0" encoding="UTF-8" standalone="no"?>
<!DOCTYPE svg PUBLIC "-//W3C//DTD SVG 1.1//EN"
 "http://www.w3.org/Graphics/SVG/1.1/DTD/svg11.dtd">
<!-- Generated by graphviz version 2.43.0 (0)
 -->
<!-- Title: structs Pages: 1 -->
<svg width="272pt" height="163pt"
 viewBox="0.00 0.00 271.50 163.00" xmlns="http://www.w3.org/2000/svg" xmlns:xlink="http://www.w3.org/1999/xlink">
<g id="graph0" class="graph" transform="scale(1 1) rotate(0) translate(4 159)">
<title>structs</title>
<polygon fill="white" stroke="transparent" points="-4,4 -4,-159 267.5,-159 267.5,4 -4,4"/>
<!-- struct1 -->
<g id="node1" class="node">
<title>struct1</title>
<polygon fill="none" stroke="black" points="22.5,-126 22.5,-147 53.5,-147 53.5,-126 22.5,-126"/>
<text text-anchor="start" x="25.5" y="-132.8" font-family="Times,serif" font-size="14.00">left</text>
<polygon fill="none" stroke="black" points="53.5,-126 53.5,-147 108.5,-147 108.5,-126 53.5,-126"/>
<text text-anchor="start" x="56.5" y="-132.8" font-family="Times,serif" font-size="14.00">middle</text>
<polygon fill="none" stroke="black" points="108.5,-126 108.5,-147 150.5,-147 150.5,-126 108.5,-126"/>
<text text-anchor="start" x="111.5" y="-132.8" font-family="Times,serif" font-size="14.00">right</text>
</g>
<!-- struct2 -->
<g id="node2" class="node">
<title>struct2</title>
<polygon fill="none" stroke="black" points="8.5,-30.5 8.5,-51.5 40.5,-51.5 40.5,-30.5 8.5,-30.5"/>
<text text-anchor="start" x="11.5" y="-37.3" font-family="Times,serif" font-size="14.00">one</text>
<polygon fill="none" stroke="black" points="40.5,-30.5 40.5,-51.5 73.5,-51.5 73.5,-30.5 40.5,-30.5"/>
<text text-anchor="start" x="43.5" y="-37.3" font-family="Times,serif" font-size="14.00">two</text>
</g>
<!-- struct1&#45;&gt;struct2 -->
<g id="edge1" class="edge">
<title>struct1:f1&#45;&gt;struct2:f0</title>
<path fill="none" stroke="black" d="M80.5,-125C80.5,-88.1 34.51,-91.98 25.88,-62.72"/>
<polygon fill="black" stroke="black" points="29.31,-61.94 24.5,-52.5 22.37,-62.88 29.31,-61.94"/>
</g>
<!-- struct3 -->
<g id="node3" class="node">
<title>struct3</title>
<polygon fill="none" stroke="black" points="107.5,-3.5 107.5,-78.5 158.5,-78.5 158.5,-3.5 107.5,-3.5"/>
<text text-anchor="start" x="115.5" y="-44.8" font-family="Times,serif" font-size="14.00">hello</text>
<text text-anchor="start" x="112.5" y="-29.8" font-family="Times,serif" font-size="14.00">world</text>
<polygon fill="none" stroke="black" points="158.5,-53.5 158.5,-78.5 215.5,-78.5 215.5,-53.5 158.5,-53.5"/>
<text text-anchor="start" x="182" y="-62.3" font-family="Times,serif" font-size="14.00">b</text>
<polygon fill="none" stroke="black" points="215.5,-3.5 215.5,-78.5 235.5,-78.5 235.5,-3.5 215.5,-3.5"/>
<text text-anchor="start" x="220.5" y="-37.3" font-family="Times,serif" font-size="14.00">g</text>
<polygon fill="none" stroke="black" points="235.5,-3.5 235.5,-78.5 255.5,-78.5 255.5,-3.5 235.5,-3.5"/>
<text text-anchor="start" x="240.5" y="-37.3" font-family="Times,serif" font-size="14.00">h</text>
<polygon fill="none" stroke="black" points="158.5,-28.5 158.5,-53.5 176.5,-53.5 176.5,-28.5 158.5,-28.5"/>
<text text-anchor="start" x="163.5" y="-37.3" font-family="Times,serif" font-size="14.00">c</text>
<polygon fill="none" stroke="black" points="176.5,-28.5 176.5,-53.5 196.5,-53.5 196.5,-28.5 176.5,-28.5"/>
<text text-anchor="start" x="181.5" y="-37.3" font-family="Times,serif" font-size="14.00">d</text>
<polygon fill="none" stroke="black" points="196.5,-28.5 196.5,-53.5 215.5,-53.5 215.5,-28.5 196.5,-28.5"/>
<text text-anchor="start" x="201.5" y="-37.3" font-family="Times,serif" font-size="14.00">e</text>
<polygon fill="none" stroke="black" points="158.5,-3.5 158.5,-28.5 215.5,-28.5 215.5,-3.5 158.5,-3.5"/>
<text text-anchor="start" x="184" y="-12.3" font-family="Times,serif" font-size="14.00">f</text>
</g>
<!-- struct1&#45;&gt;struct3 -->
<g id="edge2" class="edge">
<title>struct1:f2&#45;&gt;struct3:here</title>
<path fill="none" stroke="black" d="M129.5,-125C129.5,-96.79 151.96,-71.1 168.68,-55.87"/>
<polygon fill="black" stroke="black" points="171.04,-58.46 176.31,-49.27 166.46,-53.17 171.04,-58.46"/>
</g>
</g>
</svg>
